<svg width="512" height="512" viewBox="0 0 512 512" fill="none" xmlns="http://www.w3.org/2000/svg">
<rect width="512" height="512" rx="256" fill="white"/>
<path d="M114.481 366.468V365.497C114.481 358.699 126.458 357.08 126.458 344.455V168.03C126.458 155.405 114.481 153.787 114.481 146.665V145.694C114.481 142.78 117.07 141.162 121.279 141.162H171.778C175.987 141.162 178.576 142.78 178.576 145.694V146.665C178.576 153.787 165.628 155.405 165.628 168.03V344.455C165.628 357.08 178.576 358.699 178.576 365.497V366.468C178.576 369.381 175.987 371 171.778 371H121.279C117.07 371 114.481 369.381 114.481 366.468ZM400.544 344.132C406.371 357.728 417.054 358.375 417.054 365.497V366.468C417.054 369.381 414.464 371 410.256 371H352.634C348.426 371 345.836 369.381 345.836 366.468V365.497C345.836 358.375 362.67 356.756 357.814 344.132L345.189 312.084H247.427L235.449 344.132C230.594 356.756 247.427 358.375 247.427 365.497V366.468C247.427 369.381 244.837 371 240.305 371H203.725C199.517 371 196.927 369.381 196.927 366.468V365.497C196.927 358.375 207.933 358.051 213.437 344.132L281.417 169.649C285.625 158.966 270.734 152.815 270.734 146.665V145.694C270.734 143.104 272.677 141.162 276.238 141.162H301.811C310.551 141.162 315.731 144.722 319.292 153.463L400.544 344.132ZM253.901 294.603H338.391L295.013 183.892L253.901 294.603Z" fill="black"/>
</svg>
